/* XPM */
static char * Screenshot_2023_05_11_at_16_02_57_yugioh_millennium_items___Pesquisa_Google_removebg_preview_xpm[] = {
"25 25 429 2",
"  	c None",
". 	c #BFB472",
"+ 	c #D2CD88",
"@ 	c #DDD991",
"# 	c #E1DD94",
"$ 	c #DCD58C",
"% 	c #C9BD75",
"& 	c #BEB26D",
"* 	c #B6A663",
"= 	c #C3B065",
"- 	c #CFBB6A",
"; 	c #E2D88A",
"> 	c #E8E396",
", 	c #E6E093",
"' 	c #DBCD7F",
") 	c #CCB461",
"! 	c #CCB460",
"~ 	c #CDBA6C",
"{ 	c #C5B66E",
"] 	c #B3A768",
"^ 	c #A5975A",
"/ 	c #B29E56",
"( 	c #C3AA58",
"_ 	c #C9AF5A",
": 	c #CEB866",
"< 	c #D3C170",
"[ 	c #D2BE6D",
"} 	c #CBB461",
"| 	c #CCBA6D",
"1 	c #C7BB75",
"2 	c #B9AD6D",
"3 	c #8F8450",
"4 	c #897840",
"5 	c #BAA254",
"6 	c #C8AE5A",
"7 	c #C9AF59",
"8 	c #C5AB57",
"9 	c #BCA252",
"0 	c #B99F50",
"a 	c #BAA252",
"b 	c #C3A956",
"c 	c #CAB15D",
"d 	c #CDB96A",
"e 	c #CBBF77",
"f 	c #BEB371",
"g 	c #9D8F56",
"h 	c #897943",
"i 	c #AF984F",
"j 	c #C6AC58",
"k 	c #C1A855",
"l 	c #B79E51",
"m 	c #B9A254",
"n 	c #C2AB5C",
"o 	c #C7B264",
"p 	c #C9B669",
"q 	c #C2AD61",
"r 	c #B8A257",
"s 	c #BCA455",
"t 	c #C6AC59",
"u 	c #C9AE5A",
"v 	c #CAB05C",
"w 	c #CDB968",
"x 	c #CBBF79",
"y 	c #B0A260",
"z 	c #A4914E",
"A 	c #948245",
"B 	c #AE974F",
"C 	c #B0984F",
"D 	c #B9A153",
"E 	c #C4AD5F",
"F 	c #C6B66C",
"G 	c #CCC37D",
"H 	c #CAC280",
"I 	c #CDC684",
"J 	c #D5CF89",
"K 	c #D8CE85",
"L 	c #CDBE73",
"M 	c #BCA75B",
"N 	c #C2A857",
"O 	c #C8AE59",
"P 	c #CDBB6E",
"Q 	c #BCAD68",
"R 	c #BDA85C",
"S 	c #A48F4B",
"T 	c #A7914C",
"U 	c #BBA354",
"V 	c #BBA65B",
"W 	c #AFA062",
"X 	c #988C5B",
"Y 	c #8D7D4E",
"Z 	c #907F4E",
"` 	c #92804E",
" .	c #968452",
"..	c #AFA369",
"+.	c #CBC17D",
"@.	c #CFC37A",
"#.	c #C1AD62",
"$.	c #BFA656",
"%.	c #C6AD59",
"&.	c #CBB462",
"*.	c #CABB71",
"=.	c #B9A55D",
"-.	c #BEA555",
";.	c #B89F51",
">.	c #BCA353",
",.	c #BEA757",
"'.	c #B5A058",
").	c #96844E",
"!.	c #837346",
"~.	c #AA9E66",
"{.	c #C9C07E",
"].	c #CCC27C",
"^.	c #C3B571",
"/.	c #B1A264",
"(.	c #958350",
"_.	c #927F4D",
":.	c #B5A76B",
"<.	c #CBBD76",
"[.	c #C2AD60",
"}.	c #CAB668",
"|.	c #B09951",
"1.	c #BBA355",
"2.	c #C1AA5B",
"3.	c #C6B265",
"4.	c #CBB96D",
"5.	c #C0B16C",
"6.	c #968550",
"7.	c #6A5934",
"8.	c #988B56",
"9.	c #D3C77F",
"0.	c #E5DF92",
"a.	c #DFD385",
"b.	c #D0BB6A",
"c.	c #CAB667",
"d.	c #B2A15F",
"e.	c #7A6B3E",
"f.	c #847043",
"g.	c #AA9A61",
"h.	c #C8B973",
"i.	c #C5AE5F",
"j.	c #BDA75B",
"k.	c #B3A362",
"l.	c #B5A45F",
"m.	c #BEB370",
"n.	c #B8AF70",
"o.	c #ABA469",
"p.	c #9C935E",
"q.	c #8F8051",
"r.	c #645533",
"s.	c #5C4C28",
"t.	c #B39E56",
"u.	c #D0BD6D",
"v.	c #D6C779",
"w.	c #C6B366",
"x.	c #C5AD5B",
"y.	c #C9AF5B",
"z.	c #C2AA5A",
"A.	c #8A7941",
"B.	c #4A3C21",
"C.	c #7D6A40",
"D.	c #A08F5A",
"E.	c #C0B370",
"F.	c #CAB566",
"G.	c #C3AA59",
"H.	c #B9A256",
"I.	c #86703D",
"J.	c #806E3F",
"K.	c #70633B",
"L.	c #78693F",
"M.	c #7B6B3F",
"N.	c #7F6D40",
"O.	c #5B4D2E",
"P.	c #181007",
"Q.	c #7E6C37",
"R.	c #B7A053",
"S.	c #B7A258",
"T.	c #A08D4A",
"U.	c #4C4222",
"V.	c #87753C",
"W.	c #C0A856",
"X.	c #958144",
"Y.	c #372F14",
"Z.	c #3E341E",
"`.	c #7A673D",
" +	c #958250",
".+	c #A69960",
"++	c #B0A060",
"@+	c #B29C56",
"#+	c #998344",
"$+	c #AD9856",
"%+	c #B19E5D",
"&+	c #AD9A5B",
"*+	c #AE9957",
"=+	c #A38F4E",
"-+	c #4F4421",
";+	c #0E0401",
">+	c #7B6A36",
",+	c #938043",
"'+	c #998548",
")+	c #83713A",
"!+	c #000000",
"~+	c #5B4F28",
"{+	c #B79F52",
"]+	c #A9934D",
"^+	c #83723C",
"/+	c #392F17",
"(+	c #41361D",
"_+	c #8C7743",
":+	c #A28A4D",
"<+	c #A0894D",
"[+	c #A0884C",
"}+	c #87703C",
"|+	c #A8934F",
"1+	c #B4A462",
"2+	c #A49960",
"3+	c #9F915A",
"4+	c #A99A5E",
"5+	c #BBAA65",
"6+	c #9A894C",
"7+	c #3A2F14",
"8+	c #473C1D",
"9+	c #8A793F",
"0+	c #A18D4B",
"a+	c #9F8A47",
"b+	c #6F6130",
"c+	c #8C7A3F",
"d+	c #B49D51",
"e+	c #B49D52",
"f+	c #86753D",
"g+	c #2F2712",
"h+	c #322A11",
"i+	c #80713B",
"j+	c #B19F5A",
"k+	c #B29E58",
"l+	c #AE9B58",
"m+	c #B6A058",
"n+	c #9E8748",
"o+	c #927D43",
"p+	c #8E7B49",
"q+	c #847245",
"r+	c #897446",
"s+	c #907C4C",
"t+	c #9D8E59",
"u+	c #B5A765",
"v+	c #83743F",
"w+	c #362A12",
"x+	c #7C6C3A",
"y+	c #938044",
"z+	c #927E43",
"A+	c #8E7B41",
"B+	c #917E42",
"C+	c #AC964F",
"D+	c #88763C",
"E+	c #4A3F1D",
"F+	c #988A4E",
"G+	c #B9AC6A",
"H+	c #9C9058",
"I+	c #72693F",
"J+	c #766A41",
"K+	c #93814B",
"L+	c #867040",
"M+	c #8D7743",
"N+	c #8D7642",
"O+	c #87713F",
"P+	c #907B49",
"Q+	c #B0A266",
"R+	c #BAAC69",
"S+	c #75693A",
"T+	c #544726",
"U+	c #5E4F2C",
"V+	c #5C4E2B",
"W+	c #62532D",
"X+	c #5C4D2B",
"Y+	c #5E4F2B",
"Z+	c #6D5E32",
"`+	c #7B6A37",
" @	c #A89957",
".@	c #BDB26F",
"+@	c #9C905B",
"@@	c #867144",
"#@	c #766238",
"$@	c #7B6539",
"%@	c #7E6639",
"&@	c #BDB06E",
"*@	c #C5B064",
"=@	c #BFA555",
"-@	c #AB924F",
";@	c #8E7741",
">@	c #96824F",
",@	c #B9AC6D",
"'@	c #BDB16E",
")@	c #8B804C",
"!@	c #6B5F35",
"~@	c #5E512F",
"{@	c #594D2C",
"]@	c #5F532F",
"^@	c #726437",
"/@	c #93844C",
"(@	c #C0B16B",
"_@	c #C5BC78",
":@	c #9B8F5C",
"<@	c #857041",
"[@	c #8B7442",
"}@	c #988048",
"|@	c #907947",
"1@	c #826C3F",
"2@	c #CDB96B",
"3@	c #CAB05B",
"4@	c #C7AD59",
"5@	c #B09850",
"6@	c #8F7843",
"7@	c #907A49",
"8@	c #AEA066",
"9@	c #C3B775",
"0@	c #BAB070",
"a@	c #B0A567",
"b@	c #ACA265",
"c@	c #B4AA6A",
"d@	c #C6BB75",
"e@	c #D5CA80",
"f@	c #C5BD7C",
"g@	c #857040",
"h@	c #8B7444",
"i@	c #9D874B",
"j@	c #B49B52",
"k@	c #8E7843",
"l@	c #766139",
"m@	c #CBBA6E",
"n@	c #CAB25E",
"o@	c #AF9750",
"p@	c #907843",
"q@	c #877040",
"r@	c #988653",
"s@	c #B0A46A",
"t@	c #C3B877",
"u@	c #CBC37F",
"v@	c #C2BB7B",
"w@	c #ADA26A",
"x@	c #91804F",
"y@	c #866F3F",
"z@	c #846F40",
"A@	c #79663B",
"B@	c #A9934E",
"C@	c #A68F4C",
"D@	c #715F36",
"E@	c #C6B76F",
"F@	c #CAB462",
"G@	c #C5AB58",
"H@	c #9D8549",
"I@	c #897242",
"J@	c #907E4D",
"K@	c #8F7E4C",
"L@	c #8D7948",
"M@	c #887242",
"N@	c #8A7341",
"O@	c #8C7643",
"P@	c #78673B",
"Q@	c #89783F",
"R@	c #AD964E",
"S@	c #705F34",
"T@	c #61502E",
"U@	c #C7B368",
"V@	c #C9AF5C",
"W@	c #B9A054",
"X@	c #AC944F",
"Y@	c #A1894B",
"Z@	c #9C8449",
"`@	c #9A8249",
" #	c #9E864A",
".#	c #A9914E",
"+#	c #B79D53",
"@#	c #B59D52",
"##	c #9A8747",
"$#	c #A58F4B",
"%#	c #736233",
"&#	c #534527",
"*#	c #BDA659",
"=#	c #C2A958",
"-#	c #C5AC59",
";#	c #C4AB58",
">#	c #C7AD5A",
",#	c #C2A957",
"'#	c #A48F4A",
")#	c #887840",
"!#	c #5E522A",
"~#	c #4D4024",
"{#	c #6C5933",
"]#	c #8F7841",
"^#	c #A18A4C",
"/#	c #AC9350",
"(#	c #AA9250",
"_#	c #B39A52",
":#	c #BEA456",
"<#	c #C4AA58",
"[#	c #BDA556",
"}#	c #A28C4B",
"|#	c #665831",
"1#	c #403721",
"2#	c #524327",
"3#	c #6F5C35",
"4#	c #8B7543",
"5#	c #917A47",
"6#	c #957E49",
"7#	c #9A834A",
"8#	c #9F884B",
"9#	c #A58E4E",
"0#	c #A88F4E",
"a#	c #A58D4D",
"b#	c #9D8649",
"c#	c #6F5E37",
"d#	c #5D4E2E",
"e#	c #655430",
"f#	c #735F36",
"g#	c #846F3F",
"h#	c #8C7546",
"i#	c #877143",
"j#	c #816C40",
"k#	c #7B673C",
"l#	c #756239",
"m#	c #715F37",
"n#	c #705D37",
"o#	c #6F5C36",
"p#	c #705C34",
"q#	c #7D6839",
"r#	c #806A3C",
"s#	c #7F693C",
"t#	c #7B663A",
"u#	c #796438",
"v#	c #756136",
"                  . + @ # $ % &                   ",
"              * = - ; > , ' ) ! ~ {               ",
"          ] ^ / ( _ : < [ ! _ _ _ } | 1           ",
"        2 3 4 5 6 7 8 9 0 a b _ _ _ c d e         ",
"      f g h i j k l m n o p q r s t u v w x       ",
"      y z A B C D E F G H I J K L M N O c P       ",
"    Q R S T l U V W X Y Z `  ...+.@.#.$.%.&.*.    ",
"    =.-.;.>.,.'.).!.~.{.].^./.(._.:.<.[.>.( }.    ",
"  |.1.2.3.4.5.6.7.8.9.0.a.b.c.d.e.f.g.h.i.9 j.k.  ",
"  l.m.n.o.p.q.r.s.t.u.v.w.x.y.z.A.B.C.D.E.F.G.H.  ",
"I.J.K.L.M.N.O.P.Q.R.S.T.U.V.W.$.X.Y.Z.`. +.+++@+#+",
"  $+%+&+*+=+-+;+>+,+'+)+!+~+{+]+^+/+!+(+_+:+<+[+}+",
"|+1+2+3+4+5+6+7+8+9+0+a+b+c+d+e+f+g+h+i+j+k+l+m+n+",
"o+p+q+r+s+t+u+v+w+x+y+z+X.A+B+C+D+E+F+G+H+I+J+K+  ",
"  L+M+N+O+P+Q+R+S+T+U+V+W+X+Y+Z+`+ @.@+@@@#@$@%@  ",
"  &@*@=@-@;@>@,@'@)@!@~@{@]@^@/@(@_@:@<@[@}@|@1@  ",
"    2@3@4@5@6@7@8@9@0@a@b@c@d@e@f@:@g@h@i@j@k@l@  ",
"    m@n@_ t o@p@q@r@s@t@+.u@v@w@x@y@z@A@B@C@D@    ",
"    E@F@_ _ G@j@H@[@I@p+J@K@L@M@N@O@P@Q@R@S@T@    ",
"      U@V@_ _ 4@N W@X@Y@Z@`@ #.#+#@###$#%#&#      ",
"        *#=#-#;#4@6 >#4@t t t 4@,#'#)#!#~#{#      ",
"        ]#^#/#(#_#:#( G@G@G@<#[#}#|#1#2#3#        ",
"            4#5#6#7#8#9#0#a#b#k@c#d#e#f#          ",
"              g#h@h#i#j#k#l#m#n#o#p#              ",
"                  q#r#s#s#t#u#v#                  "};
