/* XPM */
static char * playerf_xpm[] = {
"45 45 503 2",
"  	c None",
". 	c #7A2032",
"+ 	c #A2213C",
"@ 	c #832739",
"# 	c #6E1628",
"$ 	c #A8243F",
"% 	c #503231",
"& 	c #933C38",
"* 	c #7D1A2E",
"= 	c #AD2642",
"- 	c #58542F",
"; 	c #8E7E35",
"> 	c #6B222E",
", 	c #97283E",
"' 	c #5F5C2F",
") 	c #B2A338",
"! 	c #662230",
"~ 	c #6E0C23",
"{ 	c #8A242A",
"] 	c #7A332A",
"^ 	c #6B1227",
"/ 	c #5D242F",
"( 	c #6B2834",
"_ 	c #9C1D38",
": 	c #562D38",
"< 	c #2C2A2C",
"[ 	c #BBB233",
"} 	c #735734",
"| 	c #5D1E29",
"1 	c #6D2934",
"2 	c #5C2D2E",
"3 	c #54322D",
"4 	c #744431",
"5 	c #8D7737",
"6 	c #352C26",
"7 	c #4D1928",
"8 	c #5D2533",
"9 	c #582B36",
"0 	c #2D2E34",
"a 	c #212129",
"b 	c #BFB633",
"c 	c #BBAD35",
"d 	c #7A2535",
"e 	c #912138",
"f 	c #672533",
"g 	c #826A33",
"h 	c #8B7B32",
"i 	c #2E282C",
"j 	c #35232B",
"k 	c #3D222B",
"l 	c #420D1B",
"m 	c #7C5033",
"n 	c #B1A337",
"o 	c #81762A",
"p 	c #5D4C28",
"q 	c #6E5B2D",
"r 	c #56492C",
"s 	c #958735",
"t 	c #978631",
"u 	c #E5DC39",
"v 	c #3E382E",
"w 	c #5F5B36",
"x 	c #746B30",
"y 	c #AC9C34",
"z 	c #533422",
"A 	c #4C222B",
"B 	c #4C212B",
"C 	c #3B2127",
"D 	c #3F2B34",
"E 	c #5A1531",
"F 	c #50122B",
"G 	c #5E1427",
"H 	c #7D0F2B",
"I 	c #775330",
"J 	c #B1A935",
"K 	c #AF9E30",
"L 	c #9D8533",
"M 	c #AC963D",
"N 	c #EBE038",
"O 	c #DDD034",
"P 	c #BDAB3A",
"Q 	c #998435",
"R 	c #C3B241",
"S 	c #BDAC3A",
"T 	c #826C36",
"U 	c #5E1728",
"V 	c #5F1728",
"W 	c #7C0F29",
"X 	c #59252E",
"Y 	c #403038",
"Z 	c #531530",
"` 	c #42132A",
" .	c #1A1622",
"..	c #1B1B24",
"+.	c #262324",
"@.	c #867031",
"#.	c #E4D93A",
"$.	c #CFC137",
"%.	c #F2E836",
"&.	c #BAA73B",
"*.	c #CFC238",
"=.	c #D8CA3D",
"-.	c #D5C739",
";.	c #AE9939",
">.	c #817136",
",.	c #282426",
"'.	c #541627",
").	c #532730",
"!.	c #3E2F37",
"~.	c #4A162B",
"{.	c #5C1533",
"].	c #62482A",
"^.	c #B5A436",
"/.	c #BEAE3A",
"(.	c #E3D835",
"_.	c #E0D439",
":.	c #C0A940",
"<.	c #986E43",
"[.	c #9F7F3F",
"}.	c #A27F45",
"|.	c #A68743",
"1.	c #E1D63A",
"2.	c #B4A03A",
"3.	c #987931",
"4.	c #84632E",
"5.	c #46381B",
"6.	c #232527",
"7.	c #5B2F2B",
"8.	c #BCAD3C",
"9.	c #86812A",
"0.	c #907B3B",
"a.	c #DDD13C",
"b.	c #D2C838",
"c.	c #90744A",
"d.	c #E7BD94",
"e.	c #C59C74",
"f.	c #E9BE94",
"g.	c #B68C65",
"h.	c #69592F",
"i.	c #B7A636",
"j.	c #D1C23A",
"k.	c #B7AF33",
"l.	c #685F33",
"m.	c #36242B",
"n.	c #59222D",
"o.	c #B09E38",
"p.	c #837F2A",
"q.	c #694B33",
"r.	c #9D7C3E",
"s.	c #D7CB38",
"t.	c #D3CB5D",
"u.	c #949091",
"v.	c #8A7F7C",
"w.	c #D8B18B",
"x.	c #EDC298",
"y.	c #AF9986",
"z.	c #414045",
"A.	c #271324",
"B.	c #502F2E",
"C.	c #4E4C23",
"D.	c #2C2A20",
"E.	c #A0912B",
"F.	c #8A762A",
"G.	c #51132E",
"H.	c #532030",
"I.	c #8A5E3D",
"J.	c #CDBD3E",
"K.	c #D9CD49",
"L.	c #ECE7C7",
"M.	c #82676C",
"N.	c #BB9274",
"O.	c #EDC299",
"P.	c #947C7D",
"Q.	c #37212D",
"R.	c #3D1829",
"S.	c #0F102C",
"T.	c #141641",
"U.	c #262A30",
"V.	c #2E281C",
"W.	c #69662D",
"X.	c #302329",
"Y.	c #51112B",
"Z.	c #42222A",
"`.	c #AA9C33",
" +	c #CFC136",
".+	c #EED399",
"++	c #E5B999",
"@+	c #E7B892",
"#+	c #CBA68C",
"$+	c #52212B",
"%+	c #1D1F2A",
"&+	c #191B56",
"*+	c #202367",
"=+	c #0E1136",
"-+	c #1A1D33",
";+	c #391422",
">+	c #54122E",
",+	c #4E122B",
"'+	c #6C4731",
")+	c #CEC03A",
"!+	c #E4CD61",
"~+	c #D4AA82",
"{+	c #DCB289",
"]+	c #E6BC92",
"^+	c #916953",
"/+	c #4D112A",
"(+	c #35292F",
"_+	c #4D5B6E",
":+	c #424C5C",
"<+	c #1E2138",
"[+	c #1E205F",
"}+	c #22246B",
"|+	c #202265",
"1+	c #15164A",
"2+	c #0D0D1E",
"3+	c #0F101A",
"4+	c #2D3236",
"5+	c #707D84",
"6+	c #6F7C82",
"7+	c #0C0E1A",
"8+	c #400F2E",
"9+	c #7A613D",
"0+	c #A69645",
"a+	c #C3A288",
"b+	c #C59F7E",
"c+	c #B7A39B",
"d+	c #3D2E3A",
"e+	c #667278",
"f+	c #707D83",
"g+	c #475570",
"h+	c #7C9CB1",
"i+	c #6E8394",
"j+	c #20234D",
"k+	c #1B1D5A",
"l+	c #202366",
"m+	c #201E52",
"n+	c #1E1835",
"o+	c #15174A",
"p+	c #060624",
"q+	c #06061E",
"r+	c #2D231A",
"s+	c #7D5D3F",
"t+	c #7D5B3E",
"u+	c #605A74",
"v+	c #B8B8B8",
"w+	c #7F849A",
"x+	c #5F6276",
"y+	c #59626A",
"z+	c #161A2D",
"A+	c #886F57",
"B+	c #735943",
"C+	c #4E4038",
"D+	c #2D2E35",
"E+	c #5D7285",
"F+	c #6694CF",
"G+	c #67C9F1",
"H+	c #7B99A6",
"I+	c #272829",
"J+	c #0E0708",
"K+	c #533C2D",
"L+	c #B89472",
"M+	c #B58E6A",
"N+	c #433837",
"O+	c #272A35",
"P+	c #907763",
"Q+	c #DDB38B",
"R+	c #EEC399",
"S+	c #E2B88E",
"T+	c #A57A53",
"U+	c #726C72",
"V+	c #6C7388",
"W+	c #866F5B",
"X+	c #434B5D",
"Y+	c #333649",
"Z+	c #6E6575",
"`+	c #9E707D",
" @	c #B86F79",
".@	c #9E7F8B",
"+@	c #83A4C4",
"@@	c #89B9D0",
"#@	c #83BDD7",
"$@	c #7392A1",
"%@	c #261711",
"&@	c #6D3D27",
"*@	c #78462D",
"=@	c #C19771",
"-@	c #D7AD84",
";@	c #5B4E4A",
">@	c #2C303A",
",@	c #BD9E83",
"'@	c #D9AF86",
")@	c #BC9570",
"!@	c #423633",
"~@	c #373C4A",
"{@	c #3D4556",
"]@	c #532F21",
"^@	c #703C2A",
"/@	c #87302F",
"(@	c #A23537",
"_@	c #8B444D",
":@	c #A8687D",
"<@	c #609AE1",
"[@	c #5DD0FB",
"}@	c #81AACA",
"|@	c #596878",
"1@	c #281712",
"2@	c #7F4A31",
"3@	c #8E553A",
"4@	c #935F3F",
"5@	c #C29874",
"6@	c #D3A980",
"7@	c #835E3C",
"8@	c #343134",
"9@	c #79593C",
"0@	c #B49373",
"a@	c #9E7E5F",
"b@	c #765536",
"c@	c #3F322D",
"d@	c #2F2C2A",
"e@	c #5E4E2F",
"f@	c #181417",
"g@	c #5B2E19",
"h@	c #682E20",
"i@	c #772929",
"j@	c #65495F",
"k@	c #557FAD",
"l@	c #71B4D2",
"m@	c #82A4C5",
"n@	c #82B7D0",
"o@	c #6C8399",
"p@	c #3B4351",
"q@	c #45271C",
"r@	c #4E2A19",
"s@	c #4F2A19",
"t@	c #3E242B",
"u@	c #372D40",
"v@	c #211724",
"w@	c #111430",
"x@	c #46506A",
"y@	c #79899C",
"z@	c #616F8E",
"A@	c #4E5972",
"B@	c #181A20",
"C@	c #1E1F24",
"D@	c #434753",
"E@	c #698EAF",
"F@	c #5DC7EB",
"G@	c #7FA0C3",
"H@	c #60A5DD",
"I@	c #6EB1D4",
"J@	c #66A5E2",
"K@	c #5ED0FA",
"L@	c #86A6C3",
"M@	c #6B8197",
"N@	c #404955",
"O@	c #20242E",
"P@	c #0E1039",
"Q@	c #15174B",
"R@	c #62687A",
"S@	c #8994A5",
"T@	c #A7B2BE",
"U@	c #C4CDD2",
"V@	c #697898",
"W@	c #5E6975",
"X@	c #0B0B10",
"Y@	c #3B4457",
"Z@	c #7591A6",
"`@	c #80A5C9",
" #	c #74C6E9",
".#	c #8AAAC7",
"+#	c #70ACDB",
"@#	c #70BCDD",
"##	c #839CB3",
"$#	c #6995AC",
"%#	c #63798B",
"&#	c #404855",
"*#	c #1F2230",
"=#	c #191C54",
"-#	c #181950",
";#	c #2B3054",
">#	c #BEC3C9",
",#	c #A5AEBB",
"'#	c #DBE1E3",
")#	c #D1D8DC",
"!#	c #647291",
"~#	c #1A1D2A",
"{#	c #0C0C15",
"]#	c #2C333F",
"^#	c #555359",
"/#	c #585558",
"(#	c #625B5B",
"_#	c #5C585B",
":#	c #5C575A",
"<#	c #444A53",
"[#	c #394152",
"}#	c #131630",
"|#	c #212368",
"1#	c #23256C",
"2#	c #1B1D3D",
"3#	c #586371",
"4#	c #96A4B0",
"5#	c #F1F3F3",
"6#	c #BEC5CA",
"7#	c #505C74",
"8#	c #090813",
"9#	c #0B0C1F",
"0#	c #1A181D",
"a#	c #562F1E",
"b#	c #623520",
"c#	c #864F35",
"d#	c #663722",
"e#	c #613521",
"f#	c #45312C",
"g#	c #21242A",
"h#	c #181A52",
"i#	c #1C1E59",
"j#	c #697176",
"k#	c #9D9D9E",
"l#	c #495260",
"m#	c #32394A",
"n#	c #242732",
"o#	c #3B4150",
"p#	c #383E4E",
"q#	c #3E3B4F",
"r#	c #331914",
"s#	c #341914",
"t#	c #1D1A1A",
"u#	c #121429",
"v#	c #16193A",
"w#	c #090A2E",
"x#	c #0B0D2B",
"y#	c #3A416A",
"z#	c #313562",
"A#	c #0F103B",
"B#	c #0A0B30",
"C#	c #0A0B31",
"D#	c #1E2128",
"E#	c #121426",
"F#	c #090B31",
"G#	c #22256C",
"H#	c #1B1C57",
"I#	c #030213",
"J#	c #060626",
"K#	c #08082B",
"L#	c #1D2129",
"M#	c #101225",
"N#	c #1E2162",
"O#	c #12133F",
"P#	c #040219",
"Q#	c #04021A",
"R#	c #090A2F",
"S#	c #090A28",
"T#	c #090B2E",
"U#	c #0F113D",
"V#	c #1C1E5A",
"W#	c #272B31",
"X#	c #060615",
"Y#	c #050420",
"Z#	c #080929",
"`#	c #121427",
" $	c #181A53",
".$	c #1B1E48",
"+$	c #212529",
"@$	c #050421",
"#$	c #090B30",
"$$	c #1A1D2D",
"%$	c #0C0E29",
"&$	c #0D103B",
"*$	c #212369",
"=$	c #21253F",
"-$	c #060419",
";$	c #060522",
">$	c #080A2F",
",$	c #1F2231",
"'$	c #1A1D22",
")$	c #0A0B2B",
"!$	c #151747",
"~$	c #171950",
"{$	c #1E212C",
"]$	c #0B0C18",
"^$	c #080721",
"/$	c #080924",
"($	c #1E212B",
"_$	c #0A0A10",
":$	c #0E0E16",
"<$	c #0D0D15",
"[$	c #15163A",
"}$	c #131538",
"|$	c #1E2127",
"1$	c #0E0F16",
"2$	c #0A0A17",
"3$	c #0E0E15",
"4$	c #101117",
"5$	c #1A1D1F",
"6$	c #0D0D14",
"7$	c #222629",
"8$	c #26292C",
"9$	c #101316",
"0$	c #101216",
"a$	c #101215",
"b$	c #0B0B0F",
"c$	c #0B0C0F",
"d$	c #191C1F",
"                                                                                          ",
"                                                                                          ",
"                                                                                          ",
"                                                                                          ",
"                                                                                          ",
"                                                                                          ",
"                                          .                                               ",
"                                          + @                                             ",
"                                        # $ % &                                           ",
"                                        * = - ; >                                         ",
"                                        * , ' ) !                                         ",
"                            ~ { ] ^ / ( _ : < [ } |   1 2 3                               ",
"                              4 5 6 7 8 9 0 a b c d e f g h                               ",
"                        i j k l m n o p q r s t u v w x y z A B C                         ",
"                        D E F G H I J K L M N O P Q R S T U V W X                         ",
"                          Y Z `  ...+.@.#.$.%.&.*.=.-.;.>.,.'.).                          ",
"                            !.~.{.].^./.(._.:.<.[.}.|.1.2.3.4.5.                          ",
"                              6.7.8.9.0.a.b.c.d.e.f.g.h.i.j.k.l.                          ",
"                            m.n.o.p.q.r.s.t.u.v.w.x.y.z.A.B.C.D.                          ",
"                              E.F.G.H.I.J.K.L.M.N.O.P.Q.R.                                ",
"                  S.T.U.    V.W.  X.Y.Z.`. +.+++@+x.#+$+                                  ",
"                %+&+*+=+-+        ;+>+,+'+)+!+~+{+]+^+/+(+        _+:+                    ",
"                <+[+}+|+|+1+2+3+4+5+6+7+8+9+0+a+b+c+d+e+f+      g+h+i+                    ",
"                    j+k+l+m+n+o+p+q+r+s+t+u+v+w+x+y+z+A+B+C+D+E+F+G+H+                    ",
"                    I+J+K+L+M+N+O+P+Q+R+S+T+U+V+W+X+Y+Z+`+ @.@+@@@#@$@                    ",
"                  %@&@*@=@x.-@;@>@,@x.x.'@)@!@~@{@]@^@/@(@_@:@<@[@}@|@                    ",
"                  1@2@3@4@5@6@7@8@9@0@a@b@c@d@e@f@g@h@i@j@k@l@m@n@o@p@                    ",
"                    q@r@s@t@u@v@w@x@y@z@A@B@C@D@E@F@G@H@I@J@K@L@M@N@                      ",
"                      O@P@Q@|+R@S@T@U@V@W@X@Y@Z@`@ #.#+#@###$#%#&#                        ",
"                    *#=#*+-#;#>#,#'#)#!#~#{#]#^#/#(#_#:#<#[#                              ",
"                    }#|#1#2#  3#4#5#6#7#8#9#0#a#b#c#d#e#f#                                ",
"                    g#h#i#      j#k#l#m#8#n#o#p#q#r#s#t#                                  ",
"                      u#v#              w#x#y#z#A#B#C#D#                                  ",
"                                      E#F#&+G#H#I#J#K#L#                                  ",
"                                      M#F#N#G#O#P#Q#R#S#                                  ",
"                                      T#F#U#V#W#X#Q#Y#Z#                                  ",
"                                    `#F# $|#.$  +$Q#@$#$$$                                ",
"                                    %$&$|#*$=$    -$Q#;$>$,$                              ",
"                                  '$)$!$}+~${$    ]$Q#-$^$/$($                            ",
"                                  _$:$<$[$}$|$    1$2$<$3$3$4$                            ",
"                                5$6$3$3$<$3$7$    8$9$0$0$0$a$                            ",
"                                  5$b$c$d$                                                ",
"                                                                                          ",
"                                                                                          ",
"                                                                                          "};
